<?xml version="1.0" standalone="no"?>
<!DOCTYPE svg PUBLIC "-//W3C//DTD SVG 20010904//EN"
 "http://www.w3.org/TR/2001/REC-SVG-20010904/DTD/svg10.dtd">
<svg version="1.0" xmlns="http://www.w3.org/2000/svg"
 width="1000.000000pt" height="673.000000pt" viewBox="0 0 1000.000000 673.000000"
 preserveAspectRatio="xMidYMid meet">

<g transform="translate(0.000000,673.000000) scale(0.100000,-0.100000)"
fill="#000000" stroke="none">
<path d="M0 6626 l0 -103 63 -7 c209 -22 235 -27 241 -52 6 -21 12 -24 51 -24
25 0 45 -4 45 -10 0 -5 18 -10 40 -10 22 0 40 5 40 10 0 6 18 10 40 10 28 0
40 -4 40 -14 0 -9 14 -15 40 -18 22 -2 40 0 40 4 0 5 18 8 40 8 33 0 40 -3 40
-20 0 -17 7 -20 40 -20 22 0 40 -4 40 -10 0 -6 33 -10 80 -10 64 0 80 -3 80
-15 0 -11 11 -15 40 -15 22 0 40 -4 40 -10 0 -5 18 -10 40 -10 22 0 40 -5 40
-10 0 -6 7 -6 19 1 11 7 26 9 37 4 11 -4 25 -9 33 -11 26 -5 71 -27 71 -34 0
-10 123 -22 144 -14 9 3 16 13 16 21 0 13 2 13 17 2 15 -13 15 -14 0 -17 -10
-2 -17 -12 -17 -22 0 -15 12 -19 77 -25 54 -5 78 -4 81 4 4 13 82 15 82 2 0
-6 19 -12 43 -14 23 -2 5 -4 -40 -5 -77 -2 -83 -4 -83 -23 0 -20 3 -21 87 -14
l86 8 26 -31 c25 -30 29 -31 138 -38 91 -6 116 -10 129 -25 11 -12 31 -19 56
-19 31 0 38 3 38 20 0 14 7 20 23 21 l22 0 -22 16 c-16 11 -23 26 -23 49 0 19
1 34 3 34 2 0 21 -9 44 -20 74 -36 128 -50 190 -50 41 0 67 -5 77 -15 21 -21
36 -19 36 6 0 19 4 21 38 15 20 -3 49 -6 65 -6 17 0 27 -5 27 -15 0 -8 7 -15
15 -15 11 0 15 12 15 44 0 25 5 48 10 51 6 4 27 -3 46 -14 19 -12 41 -21 47
-21 7 0 20 -9 29 -20 10 -11 30 -22 45 -26 15 -4 37 -14 48 -23 31 -25 63 -41
82 -41 10 0 40 -11 66 -25 26 -14 52 -23 58 -20 5 4 23 -5 40 -19 17 -14 35
-26 40 -26 6 0 17 -7 25 -15 9 -8 24 -15 35 -15 10 0 19 -4 19 -9 0 -4 20 -21
45 -37 30 -18 41 -30 33 -35 -14 -9 -15 -8 30 -31 27 -14 37 -15 52 -5 11 6
20 20 20 29 0 13 8 18 28 18 16 0 37 9 46 19 10 10 33 22 52 25 20 4 34 13 34
21 0 8 9 15 19 15 10 0 22 7 25 15 7 19 102 65 132 65 12 0 24 7 28 15 3 8 12
15 21 15 8 0 15 5 15 11 0 6 18 9 45 8 24 -2 47 0 51 4 4 4 17 7 30 7 12 0 44
10 71 22 26 12 55 22 63 23 8 0 15 10 15 22 1 33 9 36 48 17 32 -16 41 -16
132 0 115 19 142 31 124 52 -15 19 2 34 39 34 12 0 22 6 22 14 0 11 20 26 35
26 1 0 5 -18 9 -40 7 -46 4 -45 76 -26 30 7 62 14 70 14 79 2 153 17 158 31
14 39 18 40 137 42 86 2 105 7 84 20 -11 7 -10 9 4 9 9 0 17 -5 17 -11 0 -6
13 -8 30 -5 23 3 30 1 30 -13 0 -10 14 -22 35 -30 58 -20 42 -35 -37 -34 -10
0 -18 -4 -18 -8 0 -8 -47 -19 -115 -25 -27 -3 -60 -10 -72 -16 -16 -8 -30 -8
-45 -1 -29 13 -208 7 -273 -10 -39 -9 -50 -16 -50 -32 0 -16 -7 -20 -37 -20
-21 0 -38 3 -38 7 0 6 -22 4 -82 -8 -16 -3 -28 -9 -28 -13 0 -5 -12 -20 -26
-35 -27 -26 -68 -35 -79 -16 -3 6 -13 10 -21 10 -8 0 -13 -3 -11 -7 3 -5 -11
-9 -30 -11 -19 -1 -43 -6 -53 -12 -10 -5 -53 -16 -96 -24 -44 -8 -104 -22
-134 -30 -30 -9 -85 -21 -123 -26 -59 -9 -100 -23 -117 -40 -3 -3 -18 -10 -35
-15 -16 -6 -34 -20 -40 -33 -5 -12 -19 -22 -30 -22 -30 -1 -55 -24 -55 -53 0
-16 -6 -27 -17 -29 -15 -3 -15 -4 0 -17 15 -12 17 -11 17 3 0 12 10 16 40 16
22 0 40 -4 40 -10 0 -6 33 -10 80 -10 47 0 80 4 80 10 0 13 77 13 82 0 3 -10
67 7 78 21 5 6 108 19 159 20 17 1 20 3 11 9 -18 11 32 24 62 17 12 -3 49 0
82 8 34 8 101 15 149 15 71 0 89 3 94 16 4 12 14 14 35 10 30 -6 119 11 128
24 3 4 57 13 120 19 63 7 117 16 118 22 2 5 22 9 45 9 23 0 58 4 77 10 18 5
36 6 39 1 4 -4 75 -8 160 -9 151 -1 179 -5 152 -21 -19 -12 5 -18 97 -27 47
-4 72 -11 72 -19 0 -7 10 -16 23 -20 l22 -8 -22 -4 c-14 -3 -23 -12 -23 -23 0
-16 12 -19 84 -25 46 -4 90 -4 96 0 15 9 6 61 -14 81 -8 8 -29 14 -46 14 -48
0 -102 29 -95 50 4 14 -2 19 -32 24 -110 18 -135 24 -146 35 -21 21 13 31 86
27 38 -3 74 -9 80 -14 7 -5 28 -12 47 -15 31 -5 91 -18 195 -43 16 -4 43 -16
60 -26 37 -22 85 -24 85 -3 0 19 3 19 47 -5 41 -22 166 -29 178 -10 3 6 1 10
-6 10 -8 0 -6 6 4 18 10 10 17 28 17 40 0 21 20 28 80 24 7 0 27 6 42 14 16 8
32 13 36 10 5 -3 48 -6 96 -7 63 -2 95 -8 116 -21 17 -10 30 -22 30 -27 0 -4
21 -14 48 -21 54 -15 77 -30 44 -30 -37 0 -27 -30 11 -31 197 -8 252 -15 255
-31 2 -10 -5 -18 -20 -22 -13 -2 13 -2 57 1 44 3 81 8 83 13 1 4 14 5 27 2 14
-2 45 5 69 16 31 15 55 19 80 15 48 -8 46 -20 -6 -34 -24 -6 -56 -15 -72 -20
-16 -5 -39 -9 -52 -9 -12 0 -29 -6 -37 -14 -8 -8 -32 -16 -53 -19 -35 -3 -33
-4 12 -5 28 -1 72 -5 97 -8 43 -6 46 -9 41 -30 -5 -21 -1 -26 32 -39 22 -8 55
-23 74 -34 38 -20 104 -36 133 -32 23 3 57 -26 57 -48 0 -18 60 -46 69 -33 11
13 32 12 54 -3 12 -8 16 -15 9 -15 -7 0 -11 -4 -7 -9 3 -5 30 -7 61 -4 44 5
54 3 52 -8 -2 -11 13 -15 61 -17 36 -2 69 2 74 7 16 16 28 13 25 -6 -2 -14 3
-17 26 -15 32 4 136 -27 136 -40 0 -4 -18 -8 -40 -8 -22 0 -40 -4 -40 -10 0
-6 26 -10 59 -10 38 0 61 -5 65 -12 5 -10 7 -10 12 0 3 7 25 12 55 12 27 0 49
5 49 10 0 6 18 10 40 10 39 0 40 -1 40 -35 0 -34 1 -35 41 -35 22 0 38 -4 35
-8 -3 -5 17 -5 44 -2 37 5 47 3 43 -7 -3 -8 -21 -13 -44 -13 -28 0 -39 -4 -39
-15 0 -18 76 -22 82 -4 5 15 238 -9 238 -24 0 -5 32 -6 80 -2 49 4 80 3 80 -3
0 -5 67 -11 156 -14 86 -3 159 -10 163 -15 3 -6 51 -13 106 -17 82 -5 396 -23
443 -25 6 -1 12 -5 12 -11 0 -6 -47 -10 -120 -10 -73 0 -120 -4 -120 -10 0 -6
60 -10 160 -10 142 0 160 -2 160 -16 0 -15 9 -16 61 -10 34 3 88 6 120 6 l59
0 0 780 0 780 -5000 0 -5000 0 0 -104z m6928 -18 c-3 -7 -26 -18 -52 -23 -26
-6 -44 -13 -41 -17 4 -4 -15 -10 -42 -13 -26 -4 -63 -16 -81 -26 -18 -10 -42
-19 -53 -19 -10 0 -19 -4 -19 -9 0 -14 -71 -6 -80 9 -4 6 -24 10 -46 8 -32 -2
-39 -6 -37 -23 1 -11 0 -15 -3 -9 -6 14 -104 -16 -104 -32 0 -7 -33 -17 -87
-24 -49 -7 -124 -21 -168 -31 -89 -20 -264 -43 -272 -36 -2 3 -28 -3 -56 -12
-29 -10 -91 -21 -138 -25 -48 -4 -103 -11 -123 -16 -21 -5 -53 -4 -77 3 l-41
10 31 13 c45 19 94 61 86 74 -3 5 11 6 31 3 32 -5 113 5 214 26 19 4 34 13 33
19 -4 15 34 16 39 2 2 -6 20 -13 41 -17 33 -5 37 -3 37 16 0 11 4 21 9 21 5 0
24 2 42 5 l34 5 -30 -14 c-35 -18 -26 -20 70 -16 59 2 78 12 68 36 -9 24 37
31 250 39 106 4 153 9 162 19 8 7 11 16 8 20 -4 3 12 6 33 6 22 0 44 -4 50 -9
11 -11 64 -3 64 10 0 5 37 9 83 10 45 0 98 7 117 14 45 17 53 18 48 3z m-5328
-368 c0 -5 -4 -10 -10 -10 -5 0 -10 5 -10 10 0 6 5 10 10 10 6 0 10 -4 10 -10z
m910 -90 c0 -23 -16 -26 -36 -6 -20 20 -18 26 11 26 18 0 25 -5 25 -20z m4530
-260 c0 -5 -18 -10 -40 -10 -22 0 -40 5 -40 10 0 6 18 10 40 10 22 0 40 -4 40
-10z m-1360 -30 c0 -5 -18 -10 -40 -10 -22 0 -40 5 -40 10 0 6 18 10 40 10 22
0 40 -4 40 -10z"/>
<path d="M6278 6520 c-15 -4 -29 -5 -32 -2 -3 3 -6 0 -6 -6 0 -7 -8 -12 -19
-12 -10 0 -24 -7 -31 -15 -10 -13 -9 -15 8 -15 12 0 24 5 27 10 3 6 35 10 71
10 64 0 80 11 45 30 -22 11 -26 11 -63 0z"/>
<path d="M2238 6030 c-4 -25 -2 -28 14 -19 21 12 24 35 4 42 -9 4 -15 -4 -18
-23z"/>
<path d="M3818 5993 c7 -3 16 -2 19 1 4 3 -2 6 -13 5 -11 0 -14 -3 -6 -6z"/>
<path d="M6240 5915 c0 -8 -7 -15 -16 -15 -19 0 -13 -24 8 -28 8 -2 27 2 43 8
27 10 27 11 10 30 -21 24 -45 26 -45 5z"/>
<path d="M3279 5783 c-14 -9 -17 -12 -6 -9 10 3 34 6 53 6 19 0 34 3 34 8 0
13 -57 9 -81 -5z"/>
<path d="M7600 5500 c0 -5 5 -10 10 -10 6 0 10 5 10 10 0 6 -4 10 -10 10 -5 0
-10 -4 -10 -10z"/>
<path d="M901 4695 c-2 -44 -3 -95 -2 -112 3 -45 -4 -54 -35 -43 -29 11 -42 2
-61 -42 -7 -16 -19 -28 -28 -28 -8 0 -15 -5 -15 -11 0 -8 17 -9 56 -4 l55 7
-5 -84 c-2 -46 -5 -109 -5 -141 l-1 -58 -42 6 c-47 6 -98 -4 -98 -20 0 -5 10
-10 23 -10 l22 0 -4 -195 c-1 -107 -4 -196 -6 -198 -3 -4 -52 -10 -82 -11 -16
-1 -23 -7 -23 -20 0 -17 5 -18 47 -10 25 5 48 7 51 5 2 -3 4 -59 3 -125 l-2
-121 27 0 27 0 -6 -107 c-4 -58 -7 -125 -7 -148 0 -34 -4 -44 -20 -48 -19 -5
-20 0 -22 96 l-2 102 -3 -95 c-2 -52 -8 -97 -14 -101 -5 -3 -27 -6 -49 -7
l-38 -2 2 83 c2 45 1 61 -1 35 -3 -39 -8 -48 -24 -48 -10 0 -18 -6 -16 -12 2
-15 -66 -25 -127 -19 l-38 3 7 159 7 159 -28 0 c-55 0 -56 5 -53 156 2 111 -1
146 -14 177 -9 20 -22 36 -29 35 -8 -2 -13 6 -12 20 1 21 -3 23 -40 20 -37 -3
-42 -6 -47 -33 -5 -24 -7 -27 -13 -12 -5 9 -14 17 -22 17 -11 0 -13 -32 -8
-180 5 -176 5 -180 -16 -180 -17 0 -20 -6 -20 -45 0 -25 -3 -45 -7 -46 -19 -2
-52 -9 -95 -20 l-48 -12 0 -554 0 -554 23 6 22 6 -22 -13 c-20 -12 -21 -21
-23 -170 l-1 -158 26 0 c15 0 24 -4 20 -10 -3 -5 -15 -10 -26 -10 -19 0 -19
-17 -19 -985 l0 -985 5000 0 5000 0 0 1755 c0 1521 -2 1755 -14 1755 -8 0 -18
-5 -21 -10 -4 -6 -17 -3 -35 10 -58 42 -59 40 -53 -182 3 -112 3 -201 0 -198
-5 5 -15 160 -19 290 -1 41 -5 -8 -8 -110 l-6 -185 -2 178 c-1 116 -6 177 -13
177 -7 0 -9 -57 -5 -177 3 -133 2 -154 -4 -83 -4 52 -9 133 -11 180 -2 58 -5
29 -9 -95 l-6 -180 -2 178 c-1 118 -6 177 -13 177 -6 0 -10 -21 -9 -52 2 -78
-3 -82 -10 -8 -5 47 -7 16 -9 -115 -2 -99 -3 -182 -3 -185 0 -3 -6 -11 -14
-18 -12 -11 -14 -8 -15 15 -3 90 -2 88 -35 91 -39 4 -44 18 -44 126 l0 79 -29
-6 c-28 -6 -30 -4 -33 26 -2 20 -8 32 -18 32 -16 0 -16 0 -25 107 -5 64 -10
77 -26 81 -14 4 -19 15 -20 44 -1 36 -2 37 -8 8 -3 -16 -10 -29 -14 -27 -4 1
-11 2 -16 2 -5 0 -9 43 -8 98 l2 97 -42 3 c-36 3 -43 7 -44 25 l0 22 -9 -22
c-5 -13 -17 -23 -25 -23 -15 0 -16 17 -14 143 1 78 -1 195 -5 260 -8 114 -9
117 -32 118 -13 1 -39 3 -56 4 -18 1 -47 -2 -64 -7 l-31 -9 -6 -106 c-4 -58
-7 -126 -7 -150 0 -42 1 -43 33 -44 29 -2 29 -2 5 -6 l-27 -4 5 -372 c2 -222
0 -366 -5 -358 -7 11 -11 9 -21 -10 l-13 -23 -8 23 c-11 27 -33 23 -37 -7 -4
-30 -18 -28 -26 3 -8 30 -26 33 -33 6 -3 -12 -17 -23 -34 -26 -16 -4 -29 -11
-29 -17 0 -6 7 -8 15 -4 15 5 16 0 20 -89 1 -25 5 -30 23 -28 28 3 28 -3 1
-18 -27 -14 -39 1 -39 54 l0 38 -57 -3 -58 -2 3 -285 c1 -157 0 -283 -2 -280
-3 3 -6 117 -7 255 -1 302 -2 312 -38 317 -23 4 -22 4 7 6 21 0 32 6 32 16 0
10 10 15 27 15 55 0 12 11 -51 14 l-66 2 -1 -35 c-1 -20 -3 -28 -6 -18 -3 12
-15 17 -39 17 -29 0 -34 3 -34 24 0 15 -13 37 -32 56 l-33 30 -22 -25 c-25
-29 -28 -47 -13 -76 9 -16 7 -19 -12 -20 -45 -1 -143 -11 -148 -15 -2 -3 33
-4 78 -3 46 1 86 -1 89 -5 3 -3 -32 -6 -80 -6 -93 0 -117 -5 -117 -26 0 -7
-11 -24 -25 -38 l-25 -25 -1 62 c-1 34 -4 166 -8 292 l-6 230 -45 5 -45 5 0
45 0 45 -50 3 c-27 2 -54 7 -59 13 -15 14 -66 11 -66 -5 0 -18 -105 -29 -151
-16 -54 16 -59 14 -59 -30 0 -37 -2 -40 -27 -40 -16 0 -77 -4 -138 -10 -60 -5
-136 -10 -167 -12 l-58 -3 0 -118 c0 -88 3 -119 13 -123 7 -2 74 0 148 5 l134
10 -145 -4 c-90 -3 -137 -1 -125 5 17 7 18 9 2 9 -23 1 -17 24 8 33 19 6 19 6
-2 7 -15 1 -20 6 -18 19 2 9 4 23 4 30 1 8 22 13 64 14 l62 2 -70 6 -70 6 55
4 55 3 -55 6 -55 7 85 7 c47 4 132 12 190 17 l105 9 -120 -5 c-66 -2 -151 -6
-190 -9 -48 -3 -61 -2 -40 4 29 8 29 9 4 10 -31 1 -35 30 -5 36 12 2 73 7 136
10 63 3 140 8 170 12 30 3 52 2 49 -1 -4 -4 -80 -13 -170 -20 -149 -12 -156
-14 -84 -17 l80 -3 -75 -6 -75 -6 78 -2 c63 -2 77 1 77 13 0 11 13 15 54 15
29 0 69 3 87 6 19 4 30 3 26 -2 -4 -4 -42 -11 -85 -15 l-77 -7 83 2 c70 1 82
-1 82 -15 0 -15 -18 -18 -127 -24 -175 -9 -180 -16 -8 -11 160 5 160 0 0 -14
l-110 -9 125 4 c154 4 83 -9 -106 -20 -71 -4 -131 -9 -134 -12 -5 -5 195 3
310 12 39 3 48 2 30 -4 -24 -9 -24 -9 -2 -10 12 -1 22 -5 22 -10 0 -4 -35 -9
-77 -10 -103 -3 -108 -11 -7 -11 79 0 80 0 80 -25 0 -23 -4 -25 -43 -25 -24 0
-43 -4 -43 -8 0 -5 21 -8 48 -6 l47 3 -40 -8 c-22 -5 -111 -12 -198 -16 -133
-6 -157 -9 -153 -22 3 -8 6 -21 6 -29 0 -8 8 -14 18 -14 14 0 15 2 2 10 -8 5
-12 11 -10 13 9 8 362 22 367 15 2 -5 -38 -9 -89 -10 l-93 -2 95 -5 95 -6
-170 -10 c-132 -7 -158 -11 -115 -16 34 -3 43 -7 25 -8 -16 -1 -52 -4 -80 -6
-35 -3 -44 -2 -30 5 19 8 19 9 -2 9 -23 1 -23 0 -23 -158 0 -154 -1 -159 -20
-154 -20 5 -20 14 -20 357 0 193 -3 462 -7 599 -6 229 -8 247 -24 247 -10 0
-41 9 -69 20 -63 25 -70 25 -70 1 0 -20 -12 -23 -146 -37 l-60 -6 4 -752 c2
-413 2 -749 -1 -746 -4 3 -7 101 -8 218 0 118 -5 212 -10 212 -5 0 -9 -6 -9
-13 0 -7 -9 -13 -20 -13 -13 0 -20 7 -20 21 0 11 -3 119 -6 240 -7 252 -17
296 -90 400 -24 34 -44 76 -47 95 l-4 35 -2 -40 c-1 -22 -10 -60 -20 -85 -15
-39 -16 -49 -4 -78 8 -19 11 -42 8 -53 -4 -11 -2 -19 5 -19 6 0 8 5 5 10 -3 6
-4 10 -1 10 15 0 25 -41 16 -65 -7 -17 -7 -24 0 -20 6 3 10 1 10 -4 0 -6 -6
-11 -12 -12 -7 -1 -2 -5 12 -9 21 -7 19 -8 -17 -9 l-43 -1 -1 48 -2 47 -6 -40
c-4 -24 -2 -53 5 -72 12 -30 10 -43 -7 -43 -4 0 -10 23 -14 51 -6 41 -12 53
-29 57 -20 6 -20 6 4 13 l25 7 -27 1 c-34 1 -38 -26 -5 -32 l22 -4 -22 -2
c-20 -1 -23 -6 -23 -45 0 -34 4 -46 18 -49 16 -4 16 -5 0 -6 -14 -1 -18 -9
-17 -38 2 -31 3 -33 6 -10 2 15 9 25 14 21 5 -3 7 -10 3 -15 -3 -5 2 -21 10
-34 17 -26 9 -34 -12 -13 -6 6 -15 8 -19 4 -4 -4 -1 -11 7 -16 13 -8 12 -10
-2 -10 -10 0 -18 -7 -18 -15 0 -9 -6 -12 -15 -9 -13 5 -15 43 -15 254 0 279
-6 370 -26 370 -7 0 -15 10 -17 23 l-4 22 -2 -22 c-1 -17 -7 -23 -26 -23 -18
0 -25 -5 -25 -20 0 -16 -7 -20 -35 -20 l-35 0 0 -275 0 -275 -59 0 c-81 0
-123 -9 -117 -26 4 -11 -6 -14 -44 -14 -27 0 -52 5 -55 10 -3 6 -19 10 -35 10
-16 0 -32 -4 -35 -10 -3 -5 -22 -10 -41 -10 l-34 0 -1 -212 c-1 -204 -15 -252
-18 -63 l-2 90 -77 89 -77 89 -6 -54 c-4 -43 -6 -47 -8 -19 -5 79 -15 80 -61
8 -33 -52 -49 -68 -67 -68 -13 0 -23 4 -23 9 0 5 -10 13 -22 16 -15 6 -26 1
-39 -16 -9 -12 -15 -29 -12 -36 3 -7 0 -13 -6 -13 -6 0 -11 7 -11 15 0 10 -11
15 -35 15 l-35 0 0 114 0 115 -45 7 c-62 9 -116 -3 -122 -27 -4 -13 -14 -19
-34 -19 -23 0 -29 -4 -29 -22 0 -23 -1 -23 -130 -22 -77 1 -130 -2 -130 -8 0
-5 -4 -7 -9 -4 -8 5 -61 -54 -61 -68 0 -3 9 -3 19 -1 11 2 24 -2 28 -8 13 -17
15 -67 4 -102 l-9 -30 -1 28 c-1 42 -18 66 -41 62 -18 -3 -20 2 -20 44 0 57
-21 81 -68 81 -27 0 -32 4 -32 25 0 14 -4 26 -10 26 -5 1 -22 2 -37 4 -16 1
-35 3 -43 6 -11 3 -14 -3 -13 -23 1 -16 -2 -28 -8 -28 -5 0 -9 8 -9 18 0 11
-7 18 -20 18 -21 0 -28 -30 -10 -41 6 -4 7 -11 4 -17 -4 -6 1 -6 14 1 27 14
55 14 87 -1 20 -9 25 -18 25 -48 0 -68 -10 -98 -36 -104 -13 -4 -24 -13 -24
-21 0 -18 16 -20 24 -2 4 6 4 1 2 -12 -3 -14 0 -47 6 -75 8 -37 8 -51 -1 -54
-6 -2 -11 -10 -11 -17 0 -8 -4 -17 -10 -20 -6 -4 -9 23 -6 77 2 55 1 69 -4 43
-4 -22 -8 -35 -9 -28 0 6 -13 13 -28 15 -28 3 -28 3 -33 97 -3 63 -9 96 -18
99 -8 3 -12 -12 -12 -51 0 -46 -3 -55 -20 -60 -17 -4 -20 0 -21 31 -1 27 -3
30 -6 12 -9 -56 -33 -89 -71 -100 -20 -5 -40 -10 -44 -10 -5 0 -8 155 -8 345
0 338 0 345 -20 345 -16 0 -20 7 -20 31 0 17 -4 28 -10 24 -6 -4 -10 -86 -10
-214 l0 -208 -31 -7 c-76 -15 -72 -23 -68 147 3 96 0 153 -6 154 -11 3 -12 -5
-14 -104 -1 -60 -4 -71 -16 -67 -13 5 -15 -20 -15 -194 0 -123 -4 -203 -10
-207 -6 -4 -11 55 -12 167 l-2 173 -3 -162 c-2 -104 -7 -163 -14 -163 -6 0 -9
37 -8 102 1 80 -1 103 -12 106 -8 2 -21 6 -29 9 -8 3 -23 5 -32 4 -19 -2 -21
5 -18 52 1 25 -1 27 -37 28 -45 0 -142 20 -162 33 -23 15 -141 20 -141 7 0 -8
-14 -12 -42 -9 l-43 3 -6 -205 c-3 -113 -7 -206 -7 -207 -2 -1 -24 2 -78 13
-27 5 -31 3 -30 -18 1 -12 6 -26 13 -31 19 -12 5 -32 -23 -33 l-25 -2 2 104
c2 57 0 106 -3 109 -10 11 -58 -7 -58 -21 0 -8 -4 -14 -10 -14 -5 0 -10 8 -10
18 0 11 -12 24 -27 31 -20 9 -23 15 -15 23 7 7 12 31 12 55 0 24 5 43 10 43 6
0 10 -11 10 -25 0 -22 4 -25 33 -24 60 1 63 6 65 98 1 75 -2 87 -24 116 -15
21 -41 38 -72 47 l-47 15 3 72 c4 75 5 73 -50 85 -25 6 -28 3 -28 -18 0 -16
-5 -23 -17 -22 -14 1 -18 -7 -19 -39 -2 -61 -3 -65 -19 -65 -21 0 -19 -40 3
-57 16 -12 15 -13 -8 -11 -21 3 -24 8 -22 30 3 22 0 27 -12 22 -9 -3 -16 -15
-16 -25 0 -10 -6 -18 -12 -17 -9 2 -15 30 -19 78 -4 53 -6 20 -8 -112 -2 -104
-5 -192 -6 -198 -1 -5 -3 -19 -4 -31 0 -11 -5 -17 -11 -14 -6 4 -11 65 -12
143 l-2 137 -6 -125 c-4 -96 -7 -119 -15 -100 -5 14 -10 45 -11 70 -2 68 -6
79 -13 36 -11 -72 -26 -50 -23 31 5 117 -6 84 -13 -42 -12 -182 -25 -146 -25
67 0 165 2 197 15 202 12 4 15 -4 16 -37 l1 -42 8 49 c5 26 11 54 14 62 6 16
-10 19 -19 4 -3 -5 -15 -10 -26 -10 -18 0 -19 -9 -19 -220 0 -169 -3 -220 -12
-220 -7 0 -24 -3 -37 -7 -23 -6 -23 -5 -19 61 l4 66 -27 0 c-15 0 -29 7 -33
15 -4 11 -21 15 -60 15 -30 0 -57 -4 -60 -9 -3 -5 -17 -11 -32 -14 l-26 -5 4
128 3 128 -35 6 c-19 3 -53 6 -76 6 -22 0 -45 5 -52 12 -13 13 -182 20 -182 8
0 -5 -10 -10 -22 -12 -30 -4 -38 -58 -9 -58 14 0 21 8 25 28 2 15 3 -49 0
-143 -2 -93 -4 -200 -4 -237 l0 -68 -72 2 -73 2 68 3 c87 5 87 18 0 17 l-68
-2 62 7 c54 5 99 21 62 21 -12 0 -11 2 1 11 11 8 -3 9 -52 5 -62 -5 -68 -4
-68 14 0 16 9 20 58 23 l57 3 -65 4 -65 3 55 7 55 7 -52 1 c-40 2 -53 6 -53
17 0 8 -9 15 -20 15 -12 0 -20 -7 -20 -16 0 -13 -7 -15 -31 -10 -17 3 -47 6
-65 6 -33 0 -34 1 -34 39 0 22 -5 43 -10 46 -6 4 -10 16 -8 28 2 18 -3 23 -34
28 l-38 6 -1 -101 c0 -56 -3 -162 -5 -236 l-4 -135 -73 -3 c-39 -2 -76 -7 -81
-12 -28 -28 -33 -8 -34 133 -1 78 1 181 4 229 5 73 9 87 25 91 17 5 19 16 19
120 0 110 -1 115 -20 110 -15 -4 -20 0 -20 14 0 30 -19 44 -43 32 -11 -6 -32
-8 -48 -5 -26 5 -29 3 -29 -19 0 -15 6 -25 14 -25 14 0 14 -21 7 -243 -1 -30
-6 -40 -21 -44 -11 -3 -20 -12 -20 -20 0 -8 4 -12 9 -9 11 7 36 -22 27 -32 -4
-4 -15 -7 -24 -7 -14 0 -17 -12 -20 -70 -2 -74 -16 -115 -39 -115 -10 0 -13
27 -12 123 1 67 3 114 6 105 5 -20 43 -25 43 -5 0 6 3 23 7 36 5 22 4 23 -20
19 l-27 -5 0 108 c0 60 -3 109 -7 109 -5 0 -9 -50 -10 -111 -2 -116 -8 -153
-24 -144 -5 4 -9 -1 -9 -10 0 -9 4 -14 9 -11 15 9 16 -6 13 -124 -2 -82 -7
-110 -16 -110 -8 0 -16 17 -20 39 -3 21 -13 44 -21 51 -13 11 -14 27 -9 86 5
53 3 74 -5 74 -6 0 -11 13 -11 29 0 33 -9 38 -85 45 -40 4 -53 1 -67 -14 -10
-11 -18 -26 -18 -35 0 -8 -4 -15 -10 -15 -6 0 -10 -29 -10 -68 0 -57 -4 -71
-24 -93 -13 -14 -27 -40 -31 -57 -4 -22 -12 -32 -26 -32 -10 0 -19 7 -19 15 0
12 -13 15 -55 15 -50 0 -55 -2 -55 -22 -1 -23 -1 -23 -15 2 l-14 25 -1 -25 -1
-25 -10 25 c-7 16 -8 123 -3 308 l7 282 -28 0 -28 0 6 203 7 202 -27 13 c-15
6 -36 12 -47 12 -18 0 -19 6 -13 161 l7 160 -30 10 -29 11 -4 126 c-2 106 -3
114 -6 47z m-44 -180 c18 -19 17 -21 -19 -30 -26 -7 -27 -6 -15 19 14 30 14
30 34 11z m53 -335 c0 -5 -7 -7 -15 -4 -8 4 -15 8 -15 10 0 2 7 4 15 4 8 0 15
-4 15 -10z m8237 -26 c-3 -3 -12 -4 -19 -1 -8 3 -5 6 6 6 11 1 17 -2 13 -5z
m53 -64 c0 -5 -4 -10 -10 -10 -5 0 -10 5 -10 10 0 6 5 10 10 10 6 0 10 -4 10
-10z m179 -280 c1 -37 -2 -60 -8 -60 -7 0 -11 25 -11 60 0 33 4 60 8 60 5 0
10 -27 11 -60z m-1502 -307 c-1 -49 -3 -9 -3 87 0 96 2 136 3 88 2 -49 2 -127
0 -175z m297 194 c3 -16 5 -201 4 -411 -1 -209 -3 -358 -5 -330 l-4 51 -79 -5
c-56 -3 -80 -1 -80 7 0 7 27 11 80 11 l80 0 0 158 0 158 -87 -3 c-104 -3 -99
3 10 12 l77 7 0 34 0 35 -80 -2 c-44 -1 -83 1 -87 5 -3 3 30 6 74 6 72 0 81 2
86 20 3 11 3 30 0 41 -6 20 -11 21 -87 16 -46 -3 -72 -1 -61 3 11 5 48 9 83 9
l62 1 0 43 0 43 -72 -7 c-39 -5 -77 -10 -85 -13 -9 -4 -13 3 -13 19 0 14 -6
25 -12 26 -10 0 -10 2 0 6 17 7 15 43 -3 43 -12 0 -15 -13 -14 -57 0 -42 3
-52 9 -38 8 19 9 19 9 -2 1 -13 -3 -23 -9 -23 -5 0 -10 -8 -10 -17 0 -15 2
-16 10 -3 8 13 10 12 10 -2 0 -10 -4 -18 -8 -18 -4 0 -8 -9 -8 -20 0 -11 4
-20 8 -20 13 0 9 -30 -4 -31 -7 0 -8 -2 -3 -5 6 -2 9 -67 8 -171 -1 -106 2
-172 9 -180 7 -9 7 -13 -1 -13 -25 0 -31 62 -31 341 l0 289 30 0 c17 0 30 5
30 11 0 6 29 9 79 8 l79 -2 6 -30z m-1335 -64 c0 -25 -1 -26 -9 -8 -12 27 -12
35 0 35 6 0 10 -12 9 -27z m-122 -29 c-3 -3 -12 -4 -19 -1 -8 3 -5 6 6 6 11 1
17 -2 13 -5z m-180 -51 c-3 -10 -5 -4 -5 12 0 17 2 24 5 18 2 -7 2 -21 0 -30z
m180 31 c-3 -3 -12 -4 -19 -1 -8 3 -5 6 6 6 11 1 17 -2 13 -5z m123 -19 c0 -8
-4 -15 -10 -15 -5 0 -7 7 -4 15 4 8 8 15 10 15 2 0 4 -7 4 -15z m-123 -1 c-3
-3 -12 -4 -19 -1 -8 3 -5 6 6 6 11 1 17 -2 13 -5z m0 -20 c-3 -3 -12 -4 -19
-1 -8 3 -5 6 6 6 11 1 17 -2 13 -5z m-3410 -20 c-3 -3 -12 -4 -19 -1 -8 3 -5
6 6 6 11 1 17 -2 13 -5z m33 -36 c0 -23 -2 -39 -5 -36 -10 10 -13 78 -4 78 5
0 9 -19 9 -42z m3202 -30 c2 -21 0 -38 -4 -38 -4 0 -7 24 -7 53 1 54 5 49 11
-15z m-3235 46 c-3 -3 -12 -4 -19 -1 -8 3 -5 6 6 6 11 1 17 -2 13 -5z m1030
-26 c-3 -8 -6 -5 -6 6 -1 11 2 17 5 13 3 -3 4 -12 1 -19z m-1035 -18 c-5 -35
-22 -30 -22 6 0 13 6 24 13 24 9 0 12 -10 9 -30z m-2325 -2 c-3 -8 -6 -5 -6 6
-1 11 2 17 5 13 3 -3 4 -12 1 -19z m6828 13 c-11 -5 -97 -11 -190 -14 -185 -5
-174 -1 30 12 185 12 184 12 160 2z m1575 -36 c0 -8 -5 -15 -11 -15 -5 0 -8 4
-5 9 4 5 0 12 -6 14 -8 3 -6 6 5 6 9 1 17 -6 17 -14z m-6043 -17 c-3 -8 -6 -5
-6 6 -1 11 2 17 5 13 3 -3 4 -12 1 -19z m3176 15 c-7 -2 -19 -2 -25 0 -7 3 -2
5 12 5 14 0 19 -2 13 -5z m-3254 -60 c1 -13 -3 -23 -9 -23 -5 0 -10 19 -9 43
0 32 2 37 9 22 5 -11 9 -30 9 -42z m41 -63 c0 -60 -4 -110 -9 -110 -5 0 -7 14
-6 30 1 17 -2 30 -7 30 -5 0 -6 5 -2 11 10 17 13 89 4 89 -7 0 -7 22 0 40 1 3
2 8 1 13 0 4 4 7 9 7 6 0 10 -43 10 -110z m-2310 81 c0 -5 -19 -13 -42 -17
-43 -8 -43 -8 -13 -15 l30 -7 -27 -1 c-26 -1 -28 -4 -28 -41 0 -22 -5 -40 -11
-40 -7 0 -9 14 -4 43 11 72 14 76 53 80 20 2 38 4 40 5 1 1 2 -2 2 -7z m2349
-33 c-1 -24 -4 -34 -6 -23 -3 11 -10 23 -16 26 -12 8 -2 39 13 39 5 0 9 -19 9
-42z m3101 2 c0 -6 -23 -10 -52 -9 -34 0 -46 3 -34 8 30 12 86 13 86 1z m1043
3 c-7 -2 -21 -2 -30 0 -10 3 -4 5 12 5 17 0 24 -2 18 -5z m-6506 -75 c-2 -13
-4 -3 -4 22 0 25 2 35 4 23 2 -13 2 -33 0 -45z m6506 55 c-7 -2 -21 -2 -30 0
-10 3 -4 5 12 5 17 0 24 -2 18 -5z m-4223 -43 c0 -52 -14 -52 -18 0 -1 22 2
40 8 40 5 0 10 -18 10 -40z m3320 -77 c0 -118 0 -118 -28 -135 -50 -32 -66
-43 -80 -56 -10 -9 -31 -11 -73 -6 -51 6 -59 4 -59 -10 0 -23 -50 -22 -51 2 0
9 -3 83 -5 164 l-5 147 83 4 c46 1 113 4 151 5 l67 2 0 -117z m893 100 c-7 -2
-19 -2 -25 0 -7 3 -2 5 12 5 14 0 19 -2 13 -5z m1537 -3 c0 -5 -4 -10 -10 -10
-5 0 -10 5 -10 10 0 6 5 10 10 10 6 0 10 -4 10 -10z m60 6 c0 -3 -4 -8 -10
-11 -5 -3 -10 -1 -10 4 0 6 5 11 10 11 6 0 10 -2 10 -4z m707 -108 c-2 -24 -4
-7 -4 37 0 44 2 63 4 43 2 -21 2 -57 0 -80z m-2294 85 c-7 -2 -19 -2 -25 0 -7
3 -2 5 12 5 14 0 19 -2 13 -5z m-4146 -60 c-3 -10 -5 -2 -5 17 0 19 2 27 5 18
2 -10 2 -26 0 -35z m4150 -15 c-2 -13 -4 -3 -4 22 0 25 2 35 4 23 2 -13 2 -33
0 -45z m-5752 -166 c-14 -14 -16 15 -8 115 l8 108 3 -109 c1 -60 0 -111 -3
-114z m655 208 c0 -6 -23 -9 -52 -8 l-53 1 45 7 c25 4 48 8 53 8 4 1 7 -2 7
-8z m5075 -10 c3 -5 -1 -10 -10 -10 -9 0 -13 5 -10 10 3 6 8 10 10 10 2 0 7
-4 10 -10z m1538 3 c-7 -2 -21 -2 -30 0 -10 3 -4 5 12 5 17 0 24 -2 18 -5z
m-880 -10 c-24 -2 -62 -2 -85 0 -24 2 -5 4 42 4 47 0 66 -2 43 -4z m1050 -31
c16 2 23 -3 25 -20 3 -19 -1 -22 -27 -20 -25 2 -31 7 -31 26 0 13 -4 20 -10
17 -5 -3 -10 -2 -10 4 0 15 25 19 28 4 2 -8 13 -13 25 -11z m-1716 3 c0 -8 -4
-15 -9 -15 -10 0 -11 14 -1 23 9 10 10 9 10 -8z m-4197 -10 c0 -8 -4 -15 -8
-15 -5 0 -9 7 -9 15 0 8 4 15 9 15 4 0 8 -7 8 -15z m5197 -72 c-2 -16 -4 -3
-4 27 0 30 2 43 4 28 2 -16 2 -40 0 -55z m-6039 60 c-10 -2 -28 -2 -40 0 -13
2 -5 4 17 4 22 1 32 -1 23 -4z m-1910 -12 c21 -2 14 -41 -8 -41 -25 0 -26 17
-2 23 9 3 -1 5 -23 6 -27 1 -36 4 -26 10 7 5 21 7 30 6 9 -2 22 -4 29 -4z
m1830 2 c-10 -2 -26 -2 -35 0 -10 3 -2 5 17 5 19 0 27 -2 18 -5z m7079 -9 c-3
-3 -12 -4 -19 -1 -8 3 -5 6 6 6 11 1 17 -2 13 -5z m-7227 -8 c0 -3 -4 -8 -10
-11 -5 -3 -10 -1 -10 4 0 6 5 11 10 11 6 0 10 -2 10 -4z m173 -3 c-13 -2 -35
-2 -50 0 -16 2 -5 4 22 4 28 0 40 -2 28 -4z m5796 3 c-7 -8 -149 -10 -156 -3
-3 4 31 7 77 7 46 0 81 -2 79 -4z m-5791 -23 c-16 -2 -40 -2 -55 0 -16 2 -3 4
27 4 30 0 43 -2 28 -4z m3892 2 c0 -7 -69 -35 -86 -35 -8 0 -14 5 -14 10 0 6
9 10 20 10 11 0 20 5 20 10 0 6 14 10 30 10 17 0 30 -2 30 -5z m2237 -17 c-3
-8 -6 -5 -6 6 -1 11 2 17 5 13 3 -3 4 -12 1 -19z m863 -235 c0 -141 -2 -254
-4 -252 -4 4 -11 483 -7 502 0 4 3 7 6 7 3 0 5 -116 5 -257z m82 -3 c3 -140 2
-226 -1 -190 -8 73 -14 457 -8 450 3 -3 7 -120 9 -260z m-422 63 c0 -102 -2
-184 -5 -181 -3 2 -8 79 -11 170 -6 152 -4 198 11 198 3 0 5 -84 5 -187z m267
-213 l0 -105 -8 90 c-4 50 -7 164 -6 255 l1 165 6 -150 c4 -82 7 -197 7 -255z
m121 353 c-1 -47 -1 -47 -11 -16 -9 29 -5 63 7 63 2 0 4 -21 4 -47z m-7025 30
c-7 -2 -21 -2 -30 0 -10 3 -4 5 12 5 17 0 24 -2 18 -5z m44 1 c-3 -3 -12 -4
-19 -1 -8 3 -5 6 6 6 11 1 17 -2 13 -5z m6513 -171 c0 -97 -2 -174 -4 -172 -2
2 -6 82 -10 177 -5 119 -4 172 3 172 7 0 11 -59 11 -177z m129 170 c-11 -3
-15 -12 -13 -26 4 -21 4 -21 -5 -2 -11 25 -5 35 17 34 15 -1 15 -2 1 -6z m248
-55 c-2 -13 -4 -3 -4 22 0 25 2 35 4 23 2 -13 2 -33 0 -45z m-8751 32 c42 0
44 -1 44 -29 0 -17 -6 -31 -16 -35 -24 -9 -34 -7 -31 6 1 6 -9 14 -23 18 -19
4 -26 13 -27 35 -1 17 0 24 3 18 3 -8 24 -13 50 -13z m8340 -44 c3 -35 1 -56
-6 -56 -6 0 -10 25 -10 62 0 74 10 71 16 -6z m71 -3 c-2 -16 -4 -5 -4 22 0 28
2 40 4 28 2 -13 2 -35 0 -50z m-8297 47 c0 -5 7 -7 15 -4 8 4 15 1 15 -5 0 -6
-11 -11 -25 -11 -14 0 -25 -4 -25 -10 0 -5 -4 -10 -10 -10 -5 0 -10 11 -10 25
0 18 5 25 20 25 11 0 20 -4 20 -10z m8187 -22 c-3 -7 -5 -2 -5 12 0 14 2 19 5
13 2 -7 2 -19 0 -25z m-8094 15 c-7 -2 -19 -2 -25 0 -7 3 -2 5 12 5 14 0 19
-2 13 -5z m4397 -3 c0 -5 -4 -10 -10 -10 -5 0 -10 5 -10 10 0 6 5 10 10 10 6
0 10 -4 10 -10z m2836 -76 c-4 -13 -13 -24 -21 -24 -12 0 -15 -31 -18 -182
l-2 -183 -3 208 c-2 201 -1 207 18 207 15 0 20 7 21 28 l2 27 4 -29 c3 -15 2
-39 -1 -52z m152 70 c-8 -7 -128 -7 -136 0 -3 3 28 6 68 6 40 0 71 -2 68 -6z
m919 -16 c-3 -8 -6 -5 -6 6 -1 11 2 17 5 13 3 -3 4 -12 1 -19z m-4337 2 c0 -5
-2 -10 -4 -10 -3 0 -8 5 -11 10 -3 6 -1 10 4 10 6 0 11 -4 11 -10z m4317 -22
c-3 -8 -6 -5 -6 6 -1 11 2 17 5 13 3 -3 4 -12 1 -19z m-8252 2 c-3 -5 -12 -10
-18 -10 -7 0 -6 4 3 10 19 12 23 12 15 0z m3328 -7 c-7 -2 -19 -2 -25 0 -7 3
-2 5 12 5 14 0 19 -2 13 -5z m4364 -60 c-2 -16 -4 -5 -4 22 0 28 2 40 4 28 2
-13 2 -35 0 -50z m-6090 51 c-3 -3 -12 -4 -19 -1 -8 3 -5 6 6 6 11 1 17 -2 13
-5z m1313 -9 c0 -10 10 -15 33 -15 24 0 28 -3 17 -10 -12 -8 -12 -10 -1 -10
10 0 12 -9 7 -32 -3 -18 -7 -52 -8 -75 -2 -36 -6 -43 -23 -44 -17 -1 -18 -2
-2 -6 18 -5 18 -5 0 -19 -28 -21 -35 -17 -31 18 3 30 1 32 -42 42 l-45 11 0
45 c0 37 -5 48 -25 62 -26 19 -25 20 28 20 20 0 32 6 32 14 0 9 11 14 30 14
20 0 30 -5 30 -15z m5687 -37 c-2 -13 -4 -5 -4 17 -1 22 1 32 4 23 2 -10 2
-28 0 -40z m-8244 35 c-7 -2 -21 -2 -30 0 -10 3 -4 5 12 5 17 0 24 -2 18 -5z
m-530 -20 c-7 -2 -19 -2 -25 0 -7 3 -2 5 12 5 14 0 19 -2 13 -5z m3356 3 c-8
-8 -119 -12 -119 -4 0 4 28 8 62 8 34 0 59 -2 57 -4z m4681 -27 c0 -16 -4 -28
-9 -25 -8 5 -3 56 5 56 2 0 4 -14 4 -31z m-3430 11 c0 -5 -7 -10 -15 -10 -8 0
-15 5 -15 10 0 6 7 10 15 10 8 0 15 -4 15 -10z m3817 -12 c-3 -8 -6 -5 -6 6
-1 11 2 17 5 13 3 -3 4 -12 1 -19z m-317 -7 c0 -10 -50 -25 -58 -16 -3 3 2 5
11 5 10 0 17 5 17 10 0 6 7 10 15 10 8 0 15 -4 15 -9z m-3440 -71 c0 -42 -4
-59 -15 -64 -12 -4 -15 6 -15 58 0 34 3 66 6 69 15 15 24 -8 24 -63z m4107 8
c-2 -13 -4 -5 -4 17 -1 22 1 32 4 23 2 -10 2 -28 0 -40z m-8334 12 c-7 -26
-43 -27 -43 -1 0 11 8 21 18 24 25 5 31 0 25 -23z m7834 -17 c-3 -10 -5 -2 -5
17 0 19 2 27 5 18 2 -10 2 -26 0 -35z m-410 -5 c-3 -7 -5 -2 -5 12 0 14 2 19
5 13 2 -7 2 -19 0 -25z m173 22 c0 -5 -5 -10 -11 -10 -5 0 -7 5 -4 10 3 6 8
10 11 10 2 0 4 -4 4 -10z m60 -2 c0 -4 -12 -8 -26 -8 -14 0 -23 4 -19 9 6 11
45 10 45 -1z m-602 -5 c-21 -2 -55 -2 -75 0 -21 2 -4 4 37 4 41 0 58 -2 38 -4z
m-6138 -43 c0 -5 -7 -10 -15 -10 -8 0 -15 5 -15 10 0 6 7 10 15 10 8 0 15 -4
15 -10z m7417 -97 c-2 -21 -4 -4 -4 37 0 41 2 58 4 38 2 -21 2 -55 0 -75z
m-1344 60 c-7 -2 -21 -2 -30 0 -10 3 -4 5 12 5 17 0 24 -2 18 -5z m1264 -55
c-3 -8 -6 -5 -6 6 -1 11 2 17 5 13 3 -3 4 -12 1 -19z m-1274 -25 c-7 -2 -19
-2 -25 0 -7 3 -2 5 12 5 14 0 19 -2 13 -5z m-48 -133 c3 -5 1 -10 -4 -10 -6 0
-11 5 -11 10 0 6 2 10 4 10 3 0 8 -4 11 -10z m433 -87 c-10 -2 -26 -2 -35 0
-10 3 -2 5 17 5 19 0 27 -2 18 -5z m-5851 -20 c-6 -9 -356 -7 -365 2 -3 3 79
5 182 5 103 0 185 -3 183 -7z m-1329 -110 c-15 -2 -42 -2 -60 0 -18 2 -6 4 27
4 33 0 48 -2 33 -4z m-23 -33 c-3 -5 -11 -10 -16 -10 -6 0 -7 5 -4 10 3 6 11
10 16 10 6 0 7 -4 4 -10z m625 6 c0 -3 -4 -8 -10 -11 -5 -3 -10 -1 -10 4 0 6
5 11 10 11 6 0 10 -2 10 -4z m30 -25 c0 -11 -6 -22 -12 -24 -7 -3 -3 -6 9 -6
12 -1 23 3 25 8 4 12 57 19 57 7 -1 -5 5 -13 13 -18 9 -7 4 -8 -14 -4 -16 4
-28 2 -28 -4 0 -5 14 -10 30 -10 17 0 30 -4 30 -10 0 -5 -15 -10 -32 -10 -18
0 -42 -3 -53 -6 -21 -5 -46 12 -75 51 -8 11 -11 17 -6 13 12 -10 48 11 41 23
-4 5 -1 9 4 9 6 0 11 -9 11 -19z m-1380 -11 c0 -5 9 -10 20 -10 11 0 20 5 20
10 0 6 8 10 18 9 10 0 12 -3 5 -6 -25 -9 -13 -20 20 -17 17 2 24 1 15 -2 -10
-3 -18 -10 -18 -16 0 -5 -7 -8 -15 -5 -8 4 -17 2 -19 -2 -13 -20 -86 -27 -136
-14 -21 6 -18 8 20 13 l45 7 -43 1 c-28 1 -41 6 -37 13 4 6 19 7 37 4 20 -5
28 -4 24 3 -3 6 0 13 6 15 22 9 38 7 38 -3z m785 0 c22 -4 32 -8 23 -9 -26 -2
-22 -31 5 -32 16 -1 18 -2 5 -6 -10 -2 -18 -8 -18 -13 0 -11 -203 -2 -210 9
-3 4 -12 11 -20 14 -8 3 17 4 55 3 39 -1 84 1 100 5 l30 7 -35 2 c-19 2 -55 2
-80 2 -41 -2 -43 -1 -27 12 21 16 108 19 172 6z m-1220 -40 c-3 -5 -12 -10
-18 -10 -7 0 -6 4 3 10 19 12 23 12 15 0z m575 -9 c0 -17 -18 -21 -24 -6 -3 9
0 15 9 15 8 0 15 -4 15 -9z m-47 -18 c-7 -2 -19 -2 -25 0 -7 3 -2 5 12 5 14 0
19 -2 13 -5z m690 -57 c10 -8 26 -12 37 -9 15 4 18 1 13 -15 -3 -13 -15 -22
-31 -24 -25 -3 -25 -4 -8 -20 17 -17 17 -18 -1 -20 -10 0 -26 -1 -35 0 -10 1
-18 -5 -18 -14 0 -10 6 -14 15 -10 8 3 15 1 15 -3 0 -5 -6 -11 -12 -14 -21 -8
38 -26 63 -20 24 5 24 5 4 -10 -20 -16 -20 -16 2 -17 30 0 37 -15 8 -18 -14
-1 -39 -8 -57 -17 -18 -8 -26 -14 -18 -13 8 1 26 -4 40 -10 23 -10 20 -11 -24
-11 -59 -1 -57 -7 4 -16 58 -9 63 -15 14 -16 -27 -1 -31 -3 -14 -6 47 -9 45
-23 -3 -23 -28 0 -47 -5 -47 -11 0 -6 7 -9 15 -5 8 3 25 1 37 -4 15 -6 18 -9
8 -11 -35 -5 -46 -6 -62 -8 -22 -1 -24 -21 -3 -21 8 0 15 -8 16 -17 0 -11 3
-13 6 -5 2 6 14 12 25 12 18 0 19 -2 7 -16 -12 -15 -11 -16 9 -10 12 4 22 3
22 -2 0 -13 -120 -23 -155 -13 -17 5 -22 10 -12 10 10 1 15 6 12 11 -4 6 -11
8 -16 5 -5 -4 -9 0 -9 7 0 10 -2 10 -8 1 -5 -8 -13 -9 -22 -3 -13 8 -12 10 2
10 9 0 24 7 33 16 10 11 24 14 42 9 23 -5 25 -4 14 9 -8 9 -22 16 -32 16 -12
0 -16 5 -13 15 4 8 16 15 28 15 14 0 17 3 8 8 -7 5 -10 16 -6 25 5 14 0 17
-28 17 -50 0 -56 13 -11 27 30 9 33 12 13 12 -43 2 -69 12 -64 26 3 7 12 16
19 19 9 3 12 0 9 -8 -3 -7 2 -16 10 -19 13 -5 16 1 16 30 l0 36 52 -6 c41 -5
49 -4 39 6 -7 6 -34 11 -62 11 -46 -1 -62 7 -39 21 16 10 12 25 -7 26 -15 0
-15 2 -3 7 8 4 15 13 15 20 0 6 5 12 10 13 6 0 16 6 23 12 8 6 27 10 43 9 16
-1 29 2 29 8 0 14 22 12 43 -4z m-773 -31 c0 -8 -9 -19 -20 -25 -21 -11 -25
-4 -14 24 8 20 34 21 34 1z m100 -1 c0 -2 -13 -4 -30 -4 -16 0 -30 4 -30 8 0
5 14 7 30 4 17 -2 30 -6 30 -8z m1365 6 c30 -7 25 -13 -20 -23 -12 -3 -7 -5
13 -6 34 -1 44 -18 15 -27 -10 -3 -26 -10 -35 -15 -10 -5 -29 -9 -43 -9 -15 0
-24 -4 -21 -9 3 -5 25 -7 49 -5 23 3 54 0 67 -5 21 -9 21 -11 5 -10 -11 1 -38
1 -60 0 l-40 -2 42 -17 c40 -16 41 -18 21 -27 -36 -16 -34 -35 4 -35 18 0 40
-5 48 -10 11 -7 5 -10 -25 -10 -22 0 -47 -5 -55 -10 -12 -8 -9 -10 13 -10 15
0 27 -5 27 -11 0 -5 5 -7 11 -4 6 4 19 -2 30 -13 18 -20 18 -21 0 -19 -12 1
-17 6 -13 16 4 11 1 13 -14 7 -10 -5 -25 -9 -31 -9 -7 0 -13 -4 -13 -9 0 -4
-15 -8 -32 -9 -31 -1 -32 -1 -8 -9 14 -4 21 -8 16 -9 -6 -1 -2 -7 9 -14 17
-13 16 -14 -15 -20 -36 -8 -51 -2 -45 16 3 7 -9 20 -26 29 -29 17 -32 45 -3
34 17 -7 44 3 44 16 0 5 -9 7 -19 3 -11 -3 -22 -1 -26 5 -3 5 -17 10 -30 10
-28 0 -42 17 -26 33 8 8 11 6 11 -8 1 -20 1 -20 12 -1 8 15 8 21 0 24 -7 2
-12 11 -12 19 0 11 3 13 13 5 9 -7 17 -8 27 -1 12 9 13 11 1 16 -11 5 -11 7 0
14 10 6 7 9 -11 10 -23 1 -22 2 7 10 30 9 31 10 20 44 -6 19 -16 35 -24 35
-17 0 -17 17 0 23 18 8 107 6 142 -3z m-1520 -10 c-3 -5 -10 -10 -16 -10 -5 0
-9 5 -9 10 0 6 7 10 16 10 8 0 12 -4 9 -10z m878 -27 c-7 -2 -19 -2 -25 0 -7
3 -2 5 12 5 14 0 19 -2 13 -5z m-867 -88 c16 -13 16 -14 2 -9 -12 4 -18 1 -18
-10 0 -22 -13 -20 -27 3 -10 15 -10 21 0 24 19 8 22 8 43 -8z m89 -15 c3 -5
19 -10 36 -10 20 0 29 -5 29 -16 0 -8 4 -13 9 -10 5 3 11 0 14 -7 3 -9 -8 -12
-42 -12 -73 1 -122 -21 -91 -40 6 -4 5 -12 -4 -21 -17 -16 -30 -19 -21 -4 3 6
1 10 -5 10 -17 0 -42 28 -31 34 5 4 17 3 27 -1 12 -4 15 -3 9 6 -4 7 -18 11
-31 8 -13 -2 -24 0 -24 4 0 5 9 9 21 9 12 0 17 4 13 11 -5 8 -1 8 14 0 32 -17
37 -13 11 9 -20 16 -21 19 -7 20 9 0 20 -4 23 -10 3 -5 14 -10 23 -9 10 0 12
3 5 5 -7 3 -9 12 -6 20 6 16 19 18 28 4z m3145 -24 c0 -3 -4 -8 -10 -11 -5 -3
-10 -1 -10 4 0 6 5 11 10 11 6 0 10 -2 10 -4z m-3603 -52 c-3 -3 -12 -4 -19
-1 -8 3 -5 6 6 6 11 1 17 -2 13 -5z m990 0 c-3 -3 -12 -4 -19 -1 -8 3 -5 6 6
6 11 1 17 -2 13 -5z m-702 -14 c-3 -5 -12 -10 -18 -10 -7 0 -6 4 3 10 19 12
23 12 15 0z m45 6 c0 -2 -7 -6 -15 -10 -8 -3 -15 -1 -15 4 0 6 7 10 15 10 8 0
15 -2 15 -4z m140 0 c0 -9 -30 -14 -35 -6 -4 6 3 10 14 10 12 0 21 -2 21 -4z
m967 -22 c-3 -3 -12 -4 -19 -1 -8 3 -5 6 6 6 11 1 17 -2 13 -5z m-1103 -16
c-5 -8 -2 -9 10 -5 10 4 15 3 11 -3 -3 -6 -18 -10 -32 -10 -21 0 -24 2 -13 15
15 18 34 20 24 3z m701 -8 c-3 -5 -10 -10 -16 -10 -5 0 -9 5 -9 10 0 6 7 10
16 10 8 0 12 -4 9 -10z m-548 -26 c-8 -8 -103 -10 -122 -3 -12 5 8 7 53 7 40
0 71 -2 69 -4z m511 -28 c-7 -8 -15 -12 -17 -11 -5 6 10 25 20 25 5 0 4 -6 -3
-14z m-535 -12 c-10 -7 -15 -16 -11 -20 4 -4 14 -1 22 5 10 8 16 9 21 1 3 -5
-1 -10 -9 -10 -9 0 -16 -4 -16 -10 0 -14 -20 -12 -52 4 -15 8 -42 13 -60 10
-31 -3 -31 -3 -8 7 13 5 33 9 45 8 33 -2 41 2 20 10 -15 6 -8 8 23 8 37 0 40
-1 25 -13z m1429 -9 c12 -12 -5 -56 -21 -54 -25 2 -61 -12 -61 -25 0 -6 -5 -4
-10 4 -9 13 -11 13 -20 0 -5 -8 -10 -26 -11 -40 0 -14 -3 -19 -6 -12 -2 6 -19
13 -36 13 -18 1 -24 3 -14 6 9 2 17 8 17 13 0 5 7 7 15 4 10 -4 15 0 15 15 0
12 -6 21 -16 21 -8 0 -13 -4 -10 -9 4 -5 -4 -7 -15 -4 -20 6 -20 7 -5 18 9 7
32 11 51 8 42 -4 46 9 8 25 -28 12 -28 12 7 7 19 -2 45 -7 58 -11 18 -5 21 -3
16 10 -4 11 -1 16 13 16 11 0 22 -2 25 -5z m-1492 -30 c0 -3 -12 -11 -27 -17
-27 -11 -27 -12 -5 -15 13 -3 22 -12 22 -23 0 -10 6 -20 13 -23 6 -2 -3 -4
-22 -5 -30 -1 -32 0 -15 13 18 14 18 14 -1 16 -34 2 -49 -2 -63 -19 -13 -16
-13 -16 -8 1 4 11 0 17 -12 18 -12 0 -10 4 8 12 14 6 27 15 30 19 12 16 80 35
80 23z m25 -45 c3 -5 -1 -10 -10 -10 -9 0 -13 5 -10 10 3 6 8 10 10 10 2 0 7
-4 10 -10z m799 -5 c3 -8 1 -15 -4 -15 -6 0 -10 5 -10 10 0 6 -9 10 -21 10
-21 0 -21 0 2 -20 17 -13 19 -19 9 -19 -22 0 -47 22 -43 37 6 17 60 15 67 -3z
m-95 -12 c7 -13 5 -23 -6 -35 -15 -17 -13 -18 43 -19 55 -1 56 -2 24 -10 -51
-13 -194 -7 -175 7 8 6 12 14 8 17 -13 14 23 7 44 -8 12 -9 24 -11 27 -6 4 5
0 12 -6 14 -8 3 -6 6 5 6 10 1 15 6 12 11 -3 6 -1 10 6 10 7 0 4 7 -7 15 -17
13 -17 14 -2 15 9 0 21 -8 27 -17z m676 -13 c-3 -5 -10 -10 -16 -10 -5 0 -9 5
-9 10 0 6 7 10 16 10 8 0 12 -4 9 -10z m-625 -20 c0 -5 -9 -10 -21 -10 -11 0
-17 5 -14 10 3 6 13 10 21 10 8 0 14 -4 14 -10z m-817 -17 c-7 -2 -19 -2 -25
0 -7 3 -2 5 12 5 14 0 19 -2 13 -5z m1447 3 c0 -3 -4 -8 -10 -11 -5 -3 -10 -1
-10 4 0 6 5 11 10 11 6 0 10 -2 10 -4z m-789 -49 c-10 -9 -11 -8 -5 6 3 10 9
15 12 12 3 -3 0 -11 -7 -18z m72 6 c-7 -2 -19 -2 -25 0 -7 3 -2 5 12 5 14 0
19 -2 13 -5z m724 -29 c-3 -3 -12 -4 -19 -1 -8 3 -5 6 6 6 11 1 17 -2 13 -5z
m-40 -30 c-3 -3 -12 -4 -19 -1 -8 3 -5 6 6 6 11 1 17 -2 13 -5z m-667 -19 c7
-9 8 -15 2 -15 -5 0 -12 7 -16 15 -3 8 -4 15 -2 15 2 0 9 -7 16 -15z m55 5
c-3 -5 -10 -10 -16 -10 -5 0 -9 5 -9 10 0 6 7 10 16 10 8 0 12 -4 9 -10z m2
-46 c-3 -3 -12 -4 -19 -1 -8 3 -5 6 6 6 11 1 17 -2 13 -5z m-107 -18 c0 -2 -7
-7 -16 -10 -8 -3 -12 -2 -9 4 6 10 25 14 25 6z m73 -36 c-10 -11 -22 -20 -27
-20 -5 0 -1 9 9 20 10 11 22 20 26 20 5 0 1 -9 -8 -20z m-758 -70 c-3 -5 -14
-10 -23 -9 -14 0 -13 2 3 9 27 11 27 11 20 0z m802 -256 c-3 -3 -12 -4 -19 -1
-8 3 -5 6 6 6 11 1 17 -2 13 -5z"/>
<path d="M8043 3683 c-42 -4 -43 -5 -43 -39 l0 -35 78 3 77 3 3 38 3 37 -38
-2 c-21 -1 -57 -3 -80 -5z"/>
<path d="M7978 3023 c7 -3 16 -2 19 1 4 3 -2 6 -13 5 -11 0 -14 -3 -6 -6z"/>
<path d="M3688 2983 c12 -2 30 -2 40 0 9 3 -1 5 -23 4 -22 0 -30 -2 -17 -4z"/>
<path d="M5283 2910 c0 -25 2 -35 4 -22 2 12 2 32 0 45 -2 12 -4 2 -4 -23z"/>
<path d="M1888 2313 c7 -3 16 -2 19 1 4 3 -2 6 -13 5 -11 0 -14 -3 -6 -6z"/>
<path d="M505 2320 c3 -5 8 -10 11 -10 2 0 4 5 4 10 0 6 -5 10 -11 10 -5 0 -7
-4 -4 -10z"/>
<path d="M1275 2060 c-3 -5 -1 -10 4 -10 6 0 11 5 11 10 0 6 -2 10 -4 10 -3 0
-8 -4 -11 -10z"/>
<path d="M1183 1853 c20 -5 22 -19 5 -26 -7 -3 -3 -6 10 -6 12 -1 22 3 22 7 0
14 -23 32 -39 31 -12 -1 -12 -2 2 -6z"/>
<path d="M1877 2169 c7 -7 15 -10 18 -7 3 3 -2 9 -12 12 -14 6 -15 5 -6 -5z"/>
<path d="M1905 2151 c-3 -5 -1 -12 5 -16 5 -3 10 1 10 9 0 18 -6 21 -15 7z"/>
<path d="M600 2031 c0 -6 5 -13 10 -16 6 -3 10 1 10 9 0 9 -4 16 -10 16 -5 0
-10 -4 -10 -9z"/>
<path d="M842 4670 c0 -19 2 -27 5 -17 2 9 2 25 0 35 -3 9 -5 1 -5 -18z"/>
<path d="M837 4603 c-10 -9 -9 -43 1 -43 4 0 9 11 10 25 2 26 0 29 -11 18z"/>
<path d="M7108 4323 c7 -3 16 -2 19 1 4 3 -2 6 -13 5 -11 0 -14 -3 -6 -6z"/>
<path d="M7148 4323 c6 -2 18 -2 25 0 6 3 1 5 -13 5 -14 0 -19 -2 -12 -5z"/>
<path d="M9474 3845 c0 -60 1 -84 3 -52 2 32 2 81 0 110 -2 29 -3 3 -3 -58z"/>
<path d="M4383 3862 l-43 -3 1 -47 c0 -35 3 -42 9 -27 7 16 9 17 9 3 1 -13 10
-17 41 -16 l40 0 0 44 c0 23 -3 44 -7 46 -5 2 -27 2 -50 0z m44 -28 c-3 -3
-12 -4 -19 -1 -8 3 -5 6 6 6 11 1 17 -2 13 -5z"/>
<path d="M150 3773 c0 -36 2 -64 4 -62 8 10 13 129 5 129 -5 0 -9 -30 -9 -67z"/>
<path d="M3320 3752 c0 -10 -4 -22 -9 -27 -5 -6 -5 -19 -1 -30 8 -18 9 -17 9
8 1 15 6 27 11 27 6 0 10 9 10 20 0 11 -4 20 -10 20 -5 0 -10 -8 -10 -18z"/>
<path d="M3276 3738 c-3 -13 -5 -45 -4 -73 1 -46 1 -44 8 20 8 74 7 91 -4 53z"/>
<path d="M1650 3716 c0 -29 3 -33 20 -29 14 4 20 14 20 34 0 22 -5 29 -20 29
-16 0 -20 -7 -20 -34z"/>
<path d="M3171 3734 c0 -11 3 -14 6 -6 3 7 2 16 -1 19 -3 4 -6 -2 -5 -13z"/>
<path d="M6708 3715 c-4 -16 -1 -25 8 -25 7 0 11 8 10 18 -2 9 2 20 8 24 7 5
5 8 -5 8 -10 0 -19 -10 -21 -25z"/>
<path d="M3190 3704 c0 -8 5 -12 10 -9 6 4 8 11 5 16 -9 14 -15 11 -15 -7z"/>
<path d="M1595 3690 c3 -5 8 -10 11 -10 2 0 4 5 4 10 0 6 -5 10 -11 10 -5 0
-7 -4 -4 -10z"/>
<path d="M2300 3680 c0 -5 6 -10 14 -10 8 0 18 5 21 10 3 6 -3 10 -14 10 -12
0 -21 -4 -21 -10z"/>
<path d="M2358 3683 c7 -3 16 -2 19 1 4 3 -2 6 -13 5 -11 0 -14 -3 -6 -6z"/>
<path d="M6783 3640 c0 -25 2 -35 4 -22 2 12 2 32 0 45 -2 12 -4 2 -4 -23z"/>
<path d="M2358 3663 c7 -3 16 -2 19 1 4 3 -2 6 -13 5 -11 0 -14 -3 -6 -6z"/>
<path d="M3311 3654 c0 -11 3 -14 6 -6 3 7 2 16 -1 19 -3 4 -6 -2 -5 -13z"/>
<path d="M2300 3645 c0 -8 9 -15 20 -15 13 0 18 5 14 15 -4 8 -12 15 -20 15
-8 0 -14 -7 -14 -15z"/>
<path d="M1700 3640 c0 -5 5 -10 10 -10 6 0 10 5 10 10 0 6 -4 10 -10 10 -5 0
-10 -4 -10 -10z"/>
<path d="M2358 3643 c7 -3 16 -2 19 1 4 3 -2 6 -13 5 -11 0 -14 -3 -6 -6z"/>
<path d="M3121 3604 c0 -11 3 -14 6 -6 3 7 2 16 -1 19 -3 4 -6 -2 -5 -13z"/>
<path d="M7540 3580 l-75 -6 78 -2 c46 -1 77 2 77 8 0 6 -1 9 -2 8 -2 -1 -37
-4 -78 -8z"/>
<path d="M7657 3583 c18 -2 50 -2 70 0 21 2 7 4 -32 4 -38 0 -55 -2 -38 -4z"/>
<path d="M2398 3573 c7 -3 16 -2 19 1 4 3 -2 6 -13 5 -11 0 -14 -3 -6 -6z"/>
<path d="M2398 3553 c6 -2 18 -2 25 0 6 3 1 5 -13 5 -14 0 -19 -2 -12 -5z"/>
<path d="M7518 3553 c17 -2 47 -2 65 0 17 2 3 4 -33 4 -36 0 -50 -2 -32 -4z"/>
<path d="M7768 3543 c7 -3 16 -2 19 1 4 3 -2 6 -13 5 -11 0 -14 -3 -6 -6z"/>
<path d="M2408 3533 c7 -3 16 -2 19 1 4 3 -2 6 -13 5 -11 0 -14 -3 -6 -6z"/>
<path d="M7588 3533 c7 -3 16 -2 19 1 4 3 -2 6 -13 5 -11 0 -14 -3 -6 -6z"/>
<path d="M2308 3523 c7 -3 16 -2 19 1 4 3 -2 6 -13 5 -11 0 -14 -3 -6 -6z"/>
<path d="M7490 3517 c0 -10 8 -17 18 -17 9 0 13 4 7 8 -5 4 -13 11 -17 16 -5
5 -8 2 -8 -7z"/>
<path d="M7768 3523 c7 -3 16 -2 19 1 4 3 -2 6 -13 5 -11 0 -14 -3 -6 -6z"/>
<path d="M2395 3510 c-3 -6 1 -7 9 -4 18 7 21 14 7 14 -6 0 -13 -4 -16 -10z"/>
<path d="M7588 3513 c7 -3 16 -2 19 1 4 3 -2 6 -13 5 -11 0 -14 -3 -6 -6z"/>
<path d="M2348 3503 c6 -2 18 -2 25 0 6 3 1 5 -13 5 -14 0 -19 -2 -12 -5z"/>
<path d="M2348 3483 c6 -2 18 -2 25 0 6 3 1 5 -13 5 -14 0 -19 -2 -12 -5z"/>
<path d="M2398 3483 c7 -3 16 -2 19 1 4 3 -2 6 -13 5 -11 0 -14 -3 -6 -6z"/>
<path d="M2373 3463 c9 -2 25 -2 35 0 9 3 1 5 -18 5 -19 0 -27 -2 -17 -5z"/>
<path d="M2298 3453 c6 -2 18 -2 25 0 6 3 1 5 -13 5 -14 0 -19 -2 -12 -5z"/>
<path d="M3655 3450 c-3 -5 -1 -10 4 -10 6 0 11 5 11 10 0 6 -2 10 -4 10 -3 0
-8 -4 -11 -10z"/>
<path d="M2398 3443 c7 -3 16 -2 19 1 4 3 -2 6 -13 5 -11 0 -14 -3 -6 -6z"/>
<path d="M2308 3433 c12 -2 30 -2 40 0 9 3 -1 5 -23 4 -22 0 -30 -2 -17 -4z"/>
<path d="M4640 3405 c-2 -30 -2 -30 -10 -5 -6 19 -8 10 -9 -35 -1 -58 0 -61
24 -63 16 -1 25 3 25 13 0 9 9 15 24 15 19 0 24 5 23 20 -1 11 -8 20 -18 20
-9 0 -19 9 -22 21 -3 12 -10 18 -16 15 -5 -3 -12 2 -14 11 -3 11 -6 6 -7 -12z
m23 -45 c-7 -27 -13 -25 -11 4 1 14 5 23 9 20 4 -2 5 -13 2 -24z"/>
<path d="M7518 3423 c23 -2 59 -2 80 0 20 2 1 4 -43 4 -44 0 -61 -2 -37 -4z"/>
<path d="M2313 3413 c15 -2 37 -2 50 0 12 2 0 4 -28 4 -27 0 -38 -2 -22 -4z"/>
<path d="M4692 3400 c0 -14 2 -19 5 -12 2 6 2 18 0 25 -3 6 -5 1 -5 -13z"/>
<path d="M3652 3390 c0 -14 2 -19 5 -12 2 6 2 18 0 25 -3 6 -5 1 -5 -13z"/>
<path d="M2358 3393 c12 -2 32 -2 45 0 12 2 2 4 -23 4 -25 0 -35 -2 -22 -4z"/>
<path d="M693 3335 c0 -27 2 -38 4 -22 2 15 2 37 0 50 -2 12 -4 0 -4 -28z"/>
<path d="M2398 3373 c7 -3 16 -2 19 1 4 3 -2 6 -13 5 -11 0 -14 -3 -6 -6z"/>
<path d="M2303 3363 c9 -2 25 -2 35 0 9 3 1 5 -18 5 -19 0 -27 -2 -17 -5z"/>
<path d="M2390 3350 c0 -5 7 -7 15 -4 8 4 15 8 15 10 0 2 -7 4 -15 4 -8 0 -15
-4 -15 -10z"/>
<path d="M2358 3303 c12 -2 32 -2 45 0 12 2 2 4 -23 4 -25 0 -35 -2 -22 -4z"/>
<path d="M8488 3273 c6 -2 18 -2 25 0 6 3 1 5 -13 5 -14 0 -19 -2 -12 -5z"/>
<path d="M4990 3259 c0 -5 5 -7 10 -4 6 3 10 8 10 11 0 2 -4 4 -10 4 -5 0 -10
-5 -10 -11z"/>
<path d="M685 3200 c3 -5 8 -10 11 -10 2 0 4 5 4 10 0 6 -5 10 -11 10 -5 0 -7
-4 -4 -10z"/>
<path d="M3628 3163 c7 -3 16 -2 19 1 4 3 -2 6 -13 5 -11 0 -14 -3 -6 -6z"/>
</g>
</svg>
